<?xml version="1.0" encoding="UTF-8"?>
<svg id="Layer_1" xmlns="http://www.w3.org/2000/svg" viewBox="0 0 107.47 108.23">
  <defs>
    <style>
      .cls-1 {
        stroke-miterlimit: 10;
      }

      .cls-1, .cls-2 {
        stroke-width: 5px;
      }

      .cls-1, .cls-2, .cls-3 {
        fill: none;
        stroke: #fff;
      }

      .cls-4 {
        fill: #fff;
      }

      .cls-2, .cls-3 {
        stroke-linecap: round;
        stroke-linejoin: round;
      }

      .cls-3 {
        stroke-width: 3px;
      }
    </style>
  </defs>
  <path class="cls-2" d="M52.22,88.74h-22.89c-10.82,0-19.58-8.77-19.58-19.58v-23.21c0-10.82,8.77-19.58,19.58-19.58h48.82c10.82,0,19.58,8.77,19.58,19.58v23.21c0,10.82-8.77,19.58-19.58,19.58h-6.15"/>
  <polyline class="cls-2" points="71.99 88.74 74.14 105.73 52.22 88.74"/>
  <g>
    <circle class="cls-4" cx="40.92" cy="56.02" r="6.16"/>
    <circle class="cls-4" cx="65.32" cy="56.02" r="6.16"/>
    <path class="cls-3" d="M48.12,67.31l1.61,1.63c1.92,1.94,5.07,1.9,6.94-.09l1.45-1.54"/>
  </g>
  <rect class="cls-4" y="48.88" width="9.74" height="18.43" rx="4.21" ry="4.21"/>
  <rect class="cls-4" x="97.73" y="48.88" width="9.74" height="18.43" rx="4.21" ry="4.21"/>
  <g>
    <line class="cls-1" x1="53.74" y1="26.36" x2="53.74" y2="10.25"/>
    <circle class="cls-4" cx="53.74" cy="7.53" r="7.53"/>
  </g>
</svg>