<?xml version="1.0" encoding="UTF-8"?>
<svg id="Layer_1" xmlns="http://www.w3.org/2000/svg" viewBox="0 0 119.73 99.67">
  <defs>
    <style>
      .cls-1, .cls-2 {
        fill: none;
      }

      .cls-3 {
        fill: #fff;
      }

      .cls-2 {
        stroke: #fff;
        stroke-linecap: round;
        stroke-linejoin: round;
        stroke-width: 6px;
      }
    </style>
  </defs>
  <polygon class="cls-2" points="3 3 52.09 3 72.71 76.05 3 76.05 3 3"/>
  <polyline class="cls-2" points="45.53 76.05 55.8 96.67 116.73 96.61 116.73 21.52 57.33 21.57"/>
  <line class="cls-2" x1="72.71" y1="76.05" x2="55.8" y2="96.67"/>
  <g>
    <rect class="cls-1" x="14.38" y="21.69" width="36.8" height="38.27"/>
    <path class="cls-3" d="M18.11,57.44c-.6,0-1.07-.13-1.42-.4-.35-.26-.56-.63-.62-1.09-.07-.46.03-.98.3-1.54l13.58-30.73c.3-.7.68-1.2,1.14-1.52.46-.31.98-.47,1.54-.47s1.07.16,1.52.47c.45.32.84.82,1.17,1.52l13.58,30.73c.26.56.37,1.09.32,1.57-.05.48-.24.85-.57,1.09-.33.25-.8.37-1.39.37-.66,0-1.19-.17-1.59-.52-.4-.35-.75-.85-1.04-1.52l-3.53-8.25,2.14,1.19h-21.28l2.14-1.19-3.53,8.25c-.3.73-.63,1.25-.99,1.57-.37.31-.85.47-1.44.47ZM32.53,27.26l-7.76,18.35-1.19-1.04h18l-1.14,1.04-7.81-18.35h-.1Z"/>
  </g>
  <path class="cls-3" d="M93.7,44.24c.37.62.58,1.16.64,1.64h9.61c.65,0,1.1.18,1.35.55.25.37.37.9.37,1.58s-.12,1.18-.37,1.55c-.25.37-.7.55-1.35.55h-3.5c-.65,2.92-1.5,5.49-2.53,7.71-1.03,2.22-2.29,4.25-3.76,6.11,1.47,1.28,3.06,2.43,4.77,3.45,1.71,1.02,3.55,1.87,5.54,2.56.66.26,1.11.62,1.35,1.07.25.45.26,1.07.03,1.85-.37,1.33-1.26,1.72-2.67,1.17-2.35-.81-4.55-1.83-6.6-3.06-2.05-1.23-3.82-2.58-5.31-4.02-.8.71-1.67,1.41-2.62,2.1-.95.69-1.93,1.34-2.95,1.96s-2.05,1.19-3.1,1.71c-1.05.52-2.08.97-3.08,1.35-.47.17-.86.27-1.18.3-.32.04-.58,0-.78-.09-.21-.1-.37-.26-.49-.48-.12-.23-.24-.52-.34-.87-.2-.74-.2-1.34,0-1.82s.76-.85,1.66-1.14c1.92-.71,3.71-1.53,5.36-2.44,1.65-.91,3.26-2.11,4.83-3.58-.78-.97-1.49-1.97-2.13-2.99s-1.23-2.09-1.75-3.22c-.52-1.13-1-2.32-1.43-3.58-.43-1.26-.83-2.61-1.2-4.06h-3.32c-.67,0-1.12-.18-1.35-.55-.23-.37-.34-.88-.34-1.55s.11-1.22.34-1.58c.22-.37.67-.55,1.35-.55h11.42c-.2-.31-.42-.62-.66-.94-.24-.32-.47-.61-.69-.87-.59-.76-.88-1.42-.86-1.98.02-.56.3-1.05.83-1.48.45-.38.89-.55,1.33-.5.44.05.91.39,1.4,1.03.35.45.71.94,1.09,1.48.38.53.74,1.07,1.09,1.62ZM85.82,50.11c.59,2.3,1.34,4.33,2.24,6.09.9,1.76,2,3.39,3.28,4.91,1.23-1.5,2.28-3.13,3.15-4.91.87-1.78,1.58-3.81,2.13-6.09h-10.8Z"/>
</svg>